<svg id="Capa_1" enable-background="new 0 0 512.038 512.038" height="512" viewBox="0 0 512.038 512.038" width="512" xmlns="http://www.w3.org/2000/svg"><path d="m202.115 403.221h106.32v85.177h-106.32z" fill="#e5eef8"/><path d="m285.933 432.793h22.501v-29.572h-106.32v85.177h28.213c.001-30.71 24.896-55.605 55.606-55.605z" fill="#d5e2f3"/><g fill="#65daf9"><path d="m237.459 3.916c-4.142 0-7.5 3.358-7.5 7.5v6.194h-166.65v-6.194c0-4.142-3.358-7.5-7.5-7.5s-7.5 3.358-7.5 7.5v27.387c0 4.142 3.358 7.5 7.5 7.5s7.5-3.358 7.5-7.5v-6.193h166.65v6.193c0 4.142 3.358 7.5 7.5 7.5s7.5-3.358 7.5-7.5v-27.387c0-4.142-3.357-7.5-7.5-7.5z"/><path d="m456.959 3.916c-4.143 0-7.5 3.358-7.5 7.5v6.194h-166.65v-6.194c0-4.142-3.357-7.5-7.5-7.5s-7.5 3.358-7.5 7.5v27.387c0 4.142 3.357 7.5 7.5 7.5s7.5-3.358 7.5-7.5v-6.193h166.65v6.193c0 4.142 3.357 7.5 7.5 7.5s7.5-3.358 7.5-7.5v-27.387c0-4.142-3.357-7.5-7.5-7.5z"/><path d="m504.538 234.476h-6.193v-166.651h6.193c4.143 0 7.5-3.358 7.5-7.5s-3.357-7.5-7.5-7.5h-27.388c-4.143 0-7.5 3.358-7.5 7.5s3.357 7.5 7.5 7.5h6.194v166.651h-6.194c-4.143 0-7.5 3.358-7.5 7.5s3.357 7.5 7.5 7.5h27.388c4.143 0 7.5-3.358 7.5-7.5s-3.358-7.5-7.5-7.5z"/><path d="m504.538 287.325c4.143 0 7.5-3.358 7.5-7.5s-3.357-7.5-7.5-7.5h-27.388c-4.143 0-7.5 3.358-7.5 7.5s3.357 7.5 7.5 7.5h6.194v166.651h-6.194c-4.143 0-7.5 3.358-7.5 7.5s3.357 7.5 7.5 7.5h27.388c4.143 0 7.5-3.358 7.5-7.5s-3.357-7.5-7.5-7.5h-6.193v-166.651z"/><path d="m34.887 67.825c4.142 0 7.5-3.358 7.5-7.5s-3.358-7.5-7.5-7.5h-27.387c-4.142 0-7.5 3.358-7.5 7.5s3.358 7.5 7.5 7.5h6.194v166.651h-6.194c-4.142 0-7.5 3.358-7.5 7.5s3.358 7.5 7.5 7.5h27.387c4.142 0 7.5-3.358 7.5-7.5s-3.358-7.5-7.5-7.5h-6.193v-166.651z"/><path d="m34.887 287.325c4.142 0 7.5-3.358 7.5-7.5s-3.358-7.5-7.5-7.5h-27.387c-4.142 0-7.5 3.358-7.5 7.5s3.358 7.5 7.5 7.5h6.194v166.651h-6.194c-4.142 0-7.5 3.358-7.5 7.5s3.358 7.5 7.5 7.5h27.387c4.142 0 7.5-3.358 7.5-7.5s-3.358-7.5-7.5-7.5h-6.193v-166.651z"/></g><path d="m319.563 157.22h111.642c9.67 0 17.51 7.839 17.51 17.51v222.816c0 9.67-7.839 17.51-17.51 17.51h-351.861c-9.67 0-17.51-7.839-17.51-17.51v-222.817c0-9.67 7.839-17.51 17.51-17.51h113.031 127.188z" fill="#e5eef8"/><path d="m61.834 363.213v34.332c0 9.67 7.839 17.51 17.51 17.51h351.86c9.67 0 17.51-7.839 17.51-17.51v-34.332z" fill="#c5e1ff"/><path d="m319.563 182.22h100.937c1.776 0 3.215 1.439 3.215 3.215v148.932c0 1.776-1.439 3.215-3.215 3.215h-330.451c-1.776 0-3.215-1.439-3.215-3.215v-148.932c0-1.776 1.439-3.215 3.215-3.215h102.326z" fill="#65daf9"/><path d="m255.119 300.862c-65.524 0-118.642-53.118-118.642-118.642h-46.428c-1.776 0-3.215 1.439-3.215 3.215v148.932c0 1.776 1.439 3.215 3.215 3.215h330.451c1.776 0 3.215-1.439 3.215-3.215v-33.505z" fill="#1acff8"/><path d="m381.903 286.137h-251.668c-3.593 0-6.505 2.913-6.505 6.505v13.246c0 3.593 2.912 6.505 6.505 6.505h251.668c3.593 0 6.505-2.912 6.505-6.505v-13.246c0-3.592-2.913-6.505-6.505-6.505z" fill="#05f2a7"/><path d="m255.119 300.862c-20.773 0-40.295-5.345-57.277-14.725h-67.607c-3.593 0-6.505 2.913-6.505 6.505v13.246c0 3.593 2.912 6.505 6.505 6.505h251.668c3.593 0 6.505-2.912 6.505-6.505v-5.027h-133.289z" fill="#13e29d"/><path d="m343.864 260.973h35.296c4.23 0 7.66-3.429 7.66-7.66v-37.711c0-4.23-3.429-7.66-7.66-7.66h-35.296-176.179-36.295c-4.23 0-7.66 3.429-7.66 7.66v37.711c0 4.23 3.429 7.66 7.66 7.66h36.296z" fill="#05f2a7"/><path d="m131.39 260.973h35.003c-13.17-14.827-22.678-32.974-27.112-53.031h-7.892c-4.23 0-7.66 3.429-7.66 7.66v37.711c.001 4.23 3.43 7.66 7.661 7.66z" fill="#13e29d"/><path d="m316.125 482.231h-121.701c-5.05 0-9.144 4.094-9.144 9.144v15.129c0 .893.724 1.617 1.617 1.617h136.755c.893 0 1.617-.724 1.617-1.617v-15.129c0-5.05-4.094-9.144-9.144-9.144z" fill="#c5e1ff"/><path d="m241.134 76.629h-42.568c-3.419 0-6.19 2.771-6.19 6.19v254.763h54.948v-254.763c0-3.419-2.772-6.19-6.19-6.19z" fill="#fdcf8a"/><path d="m219.849 281.875v-205.246h-21.284c-3.419 0-6.19 2.771-6.19 6.19v254.763h54.948v-28.232c-15.173-.001-27.474-12.301-27.474-27.475z" fill="#fcb64d"/><path d="m318.983 125.072-14.933-20.858c-1.239-1.73-3.811-1.73-5.049 0l-14.933 20.858c-.377.527-.58 1.159-.58 1.807v196.811c0 7.672 6.22 13.892 13.892 13.892h8.292c7.672 0 13.892-6.22 13.892-13.892v-196.811c-.001-.648-.204-1.28-.581-1.807z" fill="#c5e1ff"/><path d="m314.965 319.996c-7.672 0-13.892-6.22-13.892-13.892v-196.811c0-.648.203-1.28.58-1.807l2.366-3.305c-1.249-1.693-3.789-1.685-5.019.033l-14.933 20.858c-.377.527-.58 1.159-.58 1.808v196.81c0 7.672 6.219 13.892 13.892 13.892h8.292c7.672 0 13.892-6.219 13.892-13.892v-3.694z" fill="#b4d9fd"/><path d="m283.488 299.266v24.424c0 7.672 6.219 13.892 13.892 13.892h8.292c7.672 0 13.892-6.219 13.892-13.892v-24.424z" fill="#e5eef8"/><path d="m301.073 306.104v-6.838h-17.585v24.424c0 7.672 6.219 13.892 13.892 13.892h8.292c7.672 0 13.892-6.219 13.892-13.892v-3.694h-4.598c-7.673 0-13.893-6.22-13.893-13.892z" fill="#d5e2f3"/><path d="m207.045 218.874h-14.67v15h14.67c4.142 0 7.5-3.358 7.5-7.5s-3.357-7.5-7.5-7.5z" fill="#fda92f"/><path d="m214.545 263.529c0-4.142-3.358-7.5-7.5-7.5h-14.67v15h14.67c4.143 0 7.5-3.358 7.5-7.5z" fill="#fda92f"/><path d="m192.375 122.411h14.67c4.142 0 7.5-3.358 7.5-7.5s-3.358-7.5-7.5-7.5h-14.67z" fill="#fda92f"/><path d="m207.045 144.566h-14.67v15h14.67c4.142 0 7.5-3.358 7.5-7.5s-3.357-7.5-7.5-7.5z" fill="#fda92f"/><path d="m207.045 181.72h-14.67v15h14.67c4.142 0 7.5-3.358 7.5-7.5s-3.357-7.5-7.5-7.5z" fill="#fda92f"/><path d="m214.545 300.683c0-4.142-3.358-7.5-7.5-7.5h-14.67v15h14.67c4.143 0 7.5-3.358 7.5-7.5z" fill="#fda92f"/><circle cx="255.274" cy="390.375" fill="#99bce4" r="10.131"/></svg>