<svg id="Capa_1" enable-background="new 0 0 504.379 504.379" height="512" viewBox="0 0 504.379 504.379" width="512" xmlns="http://www.w3.org/2000/svg"><path d="m247.079 242.243-194.962 118.511c-6.317 3.84-6.301 13.013.029 16.831l194.962 117.592c3.125 1.885 7.037 1.885 10.162 0l194.962-117.592c6.33-3.818 6.346-12.991.029-16.831l-194.961-118.511c-3.14-1.908-7.081-1.908-10.221 0z" fill="#05f2a7"/><path d="m228.143 439.154c-52.771-31.829-52.903-108.31-.242-140.321l61.248-37.23-31.849-19.36c-3.14-1.908-7.081-1.908-10.22 0l-194.963 118.511c-6.317 3.84-6.301 13.013.029 16.831l194.962 117.592c3.125 1.885 7.037 1.885 10.162 0l31.878-19.227z" fill="#13e29d"/><path d="m247.079 165.639-194.962 118.511c-6.317 3.84-6.301 13.013.029 16.831l194.962 117.592c3.125 1.885 7.037 1.885 10.162 0l194.962-117.592c6.33-3.818 6.346-12.991.029-16.831l-194.961-118.511c-3.14-1.908-7.081-1.908-10.221 0z" fill="#65daf9"/><path d="m228.143 362.55c-52.771-31.829-52.903-108.31-.242-140.321l61.248-37.23-31.849-19.36c-3.14-1.908-7.081-1.908-10.22 0l-194.963 118.511c-6.317 3.84-6.301 13.013.029 16.831l194.962 117.592c3.125 1.885 7.037 1.885 10.162 0l31.878-19.227z" fill="#1acff8"/><path d="m247.079 84.035-194.962 118.511c-6.317 3.84-6.301 13.013.029 16.831l194.962 117.592c3.125 1.885 7.037 1.885 10.162 0l194.962-117.592c6.33-3.818 6.346-12.991.029-16.831l-194.961-118.511c-3.14-1.908-7.081-1.908-10.221 0z" fill="#fd6773"/><path d="m228.143 280.946c-52.771-31.829-52.903-108.31-.242-140.321l61.248-37.23-31.849-19.36c-3.14-1.909-7.081-1.909-10.22 0l-194.963 118.511c-6.317 3.84-6.301 13.013.029 16.831l194.962 117.592c3.125 1.885 7.037 1.885 10.162 0l31.878-19.227z" fill="#fc4d5a"/><path d="m247.079 1.431-194.962 118.511c-6.317 3.84-6.301 13.013.029 16.831l194.962 117.592c3.125 1.885 7.037 1.885 10.162 0l194.962-117.592c6.33-3.818 6.346-12.991.029-16.831l-194.961-118.511c-3.14-1.908-7.081-1.908-10.221 0z" fill="#6dd8e6"/><path d="m228.143 198.342c-52.771-31.829-52.903-108.31-.242-140.321l61.248-37.23-31.849-19.36c-3.14-1.908-7.081-1.908-10.22 0l-194.963 118.511c-6.317 3.84-6.301 13.013.029 16.831l194.962 117.592c3.125 1.885 7.037 1.885 10.162 0l31.878-19.227z" fill="#16c6db"/><path d="m95.046 129.95 156.137 94.175c.619.373 1.393.373 2.012 0l79.606-48.015c1.253-.756 1.256-2.572.006-3.332l-155.841-94.73c-.622-.378-1.402-.378-2.023 0l-79.902 48.57c-1.251.76-1.248 2.576.005 3.332z" fill="#16c6db"/><path d="m176.966 78.048c-.621-.378-1.402-.378-2.023 0l-79.902 48.57c-1.25.76-1.247 2.576.006 3.332l156.137 94.176c.619.373 1.393.373 2.012 0l8.847-5.336-33.899-20.447c-39.022-23.536-49.252-71.483-30.647-107.815z" fill="#17b0cb"/><path d="m318.599 127.236c-1.327 0-2.671-.353-3.888-1.092l-98.826-60.073c-3.54-2.152-4.665-6.766-2.513-10.305 2.151-3.539 6.765-4.663 10.305-2.514l98.826 60.073c3.539 2.152 4.665 6.766 2.513 10.305-1.412 2.322-3.884 3.606-6.417 3.606z" fill="#16c6db"/><path d="m223.677 53.252c-3.54-2.149-8.154-1.025-10.305 2.514-2.152 3.539-1.026 8.152 2.513 10.305l.531.323c3.5-3.038 7.327-5.844 11.485-8.372l1.811-1.101z" fill="#17b0cb"/><path d="m373.157 160.4c-1.327 0-2.671-.353-3.888-1.092l-32.737-19.899c-3.54-2.151-4.665-6.766-2.513-10.305s6.765-4.664 10.304-2.514l32.737 19.899c3.54 2.151 4.665 6.766 2.513 10.305-1.411 2.322-3.883 3.606-6.416 3.606z" fill="#16c6db"/><path d="m277.646 63.533c-1.327 0-2.671-.353-3.888-1.092l-34.852-21.186c-3.54-2.152-4.665-6.766-2.513-10.305s6.765-4.664 10.304-2.514l34.853 21.186c3.539 2.152 4.665 6.766 2.513 10.305-1.413 2.323-3.885 3.606-6.417 3.606z" fill="#16c6db"/><path d="m236.392 30.951c-2.152 3.539-1.026 8.152 2.513 10.305l8.288 5.038 14.439-8.777-14.937-9.079c-3.538-2.151-8.151-1.026-10.303 2.513z" fill="#17b0cb"/><path d="m404.263 140.5c-1.327 0-2.671-.353-3.888-1.092l-105.902-64.374c-3.54-2.152-4.665-6.766-2.513-10.305s6.766-4.663 10.304-2.514l105.901 64.374c3.54 2.152 4.665 6.766 2.513 10.305-1.411 2.323-3.882 3.606-6.415 3.606z" fill="#16c6db"/><g fill="#fdcf8a"><path d="m119.138 371.767c4.142 0 7.5-3.357 7.5-7.5v-160.107c0-4.143-3.358-7.5-7.5-7.5s-7.5 3.357-7.5 7.5v160.106c0 4.143 3.358 7.501 7.5 7.501z"/><path d="m143.64 462.192-17.002 17.003v-89.927c0-4.143-3.358-7.5-7.5-7.5s-7.5 3.357-7.5 7.5v89.084l-15.85-15.85c-2.928-2.929-7.677-2.93-10.606-.001-2.929 2.93-2.929 7.678 0 10.606l29.075 29.076c1.406 1.407 3.314 2.197 5.303 2.197s3.897-.79 5.303-2.196l29.383-29.384c2.929-2.93 2.929-7.678 0-10.607s-7.678-2.929-10.606-.001z"/><path d="m384.241 296.531c4.142 0 7.5-3.357 7.5-7.5v-84.871c0-4.143-3.358-7.5-7.5-7.5s-7.5 3.357-7.5 7.5v84.871c0 4.143 3.358 7.5 7.5 7.5z"/><path d="m418.198 462.499c-2.929-2.928-7.678-2.929-10.606.001l-15.85 15.85v-162.013c0-4.143-3.358-7.5-7.5-7.5s-7.5 3.357-7.5 7.5v162.857l-17.002-17.003c-2.929-2.928-7.678-2.928-10.606 0-2.929 2.93-2.929 7.678 0 10.607l29.383 29.384c1.406 1.406 3.314 2.196 5.303 2.196s3.897-.79 5.303-2.197l29.075-29.076c2.929-2.928 2.929-7.676 0-10.606z"/></g></svg>