<svg id="Capa_1" enable-background="new 0 0 496.271 496.271" height="512" viewBox="0 0 496.271 496.271" width="512" xmlns="http://www.w3.org/2000/svg"><path d="m167.295 470.381h300.583c15.681 0 28.393-12.712 28.393-28.393v-177.943c0-15.681-12.712-28.393-28.393-28.393h-233.15-67.433z" fill="#fd6773"/><path d="m280.567 441.988v-206.335h-45.839-67.433v234.728h84.879c15.681 0 28.393-12.712 28.393-28.393z" fill="#fc4d5a"/><path d="m234.728 445.381h229.84c3.702 0 6.703-3.001 6.703-6.703v-56.968c0-1.987-1.611-3.598-3.598-3.598h-7.021c-14.07 0-25.924-11.514-25.657-25.582.259-13.636 11.393-24.611 25.092-24.611h7.586c1.987 0 3.598-1.611 3.598-3.598v-56.968c0-3.702-3.001-6.703-6.703-6.703h-229.84-29.747v184.729h29.747z" fill="#65daf9"/><path d="m280.567 441.988v-181.336h-45.839-29.747v184.729h29.747 45.63c.132-1.113.209-2.244.209-3.393z" fill="#1acff8"/><path d="m206.335 470.381h-177.942c-15.681 0-28.393-12.712-28.393-28.393v-387.706c0-15.68 12.712-28.392 28.393-28.392h177.943c15.681 0 28.393 12.712 28.393 28.393v387.706c-.001 15.68-12.713 28.392-28.394 28.392z" fill="#fd6773"/><path d="m203.026 50.89h-56.968c-1.987 0-3.598 1.611-3.598 3.598v7.021c0 14.07-11.514 25.924-25.582 25.657-13.636-.259-24.611-11.394-24.611-25.092v-7.586c0-1.987-1.611-3.598-3.598-3.598h-56.967c-3.702 0-6.703 3.001-6.703 6.703v381.086c0 3.702 3.001 6.703 6.703 6.703h171.323c3.702 0 6.703-3.001 6.703-6.703v-381.087c0-3.701-3.001-6.702-6.702-6.702z" fill="#65daf9"/><path d="m209.728 382.099c-73.11 0-132.377-59.267-132.377-132.377v-198.832h-45.649c-3.702 0-6.703 3.001-6.703 6.703v381.086c0 3.702 3.001 6.703 6.703 6.703h171.323c3.702 0 6.703-3.001 6.703-6.703z" fill="#1acff8"/><circle cx="117.864" cy="62.053" fill="#f93442" r="9.871"/><circle cx="460.108" cy="353.517" fill="#f93442" r="9.871"/><path d="m404.86 157.576c-2.609-3.218-7.331-3.711-10.55-1.103l-9.978 8.09v-43.718c0-20.197-16.432-36.628-36.629-36.628h-43.717l8.09-9.978c2.608-3.217 2.114-7.94-1.103-10.549-3.218-2.608-7.94-2.114-10.55 1.103l-18 22.201c-2.231 2.753-2.231 6.693 0 9.446l18 22.201c1.482 1.829 3.647 2.777 5.831 2.777 1.659 0 3.329-.548 4.719-1.674 3.217-2.608 3.711-7.332 1.103-10.549l-8.09-9.978h43.717c11.926 0 21.629 9.703 21.629 21.628v43.718l-9.978-8.09c-3.219-2.609-7.94-2.114-10.55 1.103-2.608 3.217-2.114 7.94 1.103 10.549l22.201 18c1.377 1.116 3.05 1.674 4.724 1.674s3.347-.558 4.724-1.674l22.201-18c3.217-2.608 3.711-7.331 1.103-10.549z" fill="#65daf9"/><path d="m67.053 188.022h-10.465c-4.143 0-7.5-3.358-7.5-7.5s3.357-7.5 7.5-7.5h10.465c4.143 0 7.5 3.358 7.5 7.5s-3.357 7.5-7.5 7.5z" fill="#1ba7ee"/><g fill="#1acff8"><path d="m181.167 187.799h-92.188c-4.143 0-7.5-3.358-7.5-7.5s3.357-7.5 7.5-7.5h92.188c4.143 0 7.5 3.358 7.5 7.5s-3.357 7.5-7.5 7.5z"/><path d="m181.167 221.217h-10.465c-4.143 0-7.5-3.358-7.5-7.5s3.357-7.5 7.5-7.5h10.465c4.143 0 7.5 3.358 7.5 7.5s-3.357 7.5-7.5 7.5z"/><path d="m148.777 221.439h-92.189c-4.143 0-7.5-3.358-7.5-7.5s3.357-7.5 7.5-7.5h92.188c4.143 0 7.5 3.358 7.5 7.5s-3.357 7.5-7.499 7.5z"/></g><path d="m56.588 221.439h20.763v-15h-20.763c-4.143 0-7.5 3.358-7.5 7.5s3.358 7.5 7.5 7.5z" fill="#1ba7ee"/><path d="m67.053 254.857h-10.465c-4.143 0-7.5-3.358-7.5-7.5s3.357-7.5 7.5-7.5h10.465c4.143 0 7.5 3.358 7.5 7.5s-3.357 7.5-7.5 7.5z" fill="#1ba7ee"/><path d="m181.167 254.635h-92.188c-4.143 0-7.5-3.358-7.5-7.5s3.357-7.5 7.5-7.5h92.188c4.143 0 7.5 3.358 7.5 7.5s-3.357 7.5-7.5 7.5z" fill="#1acff8"/><path d="m181.167 288.053h-10.465c-4.143 0-7.5-3.358-7.5-7.5s3.357-7.5 7.5-7.5h10.465c4.143 0 7.5 3.358 7.5 7.5s-3.357 7.5-7.5 7.5z" fill="#1acff8"/><path d="m148.777 288.276h-92.189c-4.143 0-7.5-3.358-7.5-7.5s3.357-7.5 7.5-7.5h92.188c4.143 0 7.5 3.358 7.5 7.5s-3.357 7.5-7.499 7.5z" fill="#1acff8"/><path d="m56.588 288.276h26.473c-1.486-4.887-2.702-9.891-3.619-15h-22.854c-4.143 0-7.5 3.358-7.5 7.5s3.358 7.5 7.5 7.5z" fill="#1ba7ee"/><path d="m67.053 321.694h-10.465c-4.143 0-7.5-3.358-7.5-7.5s3.357-7.5 7.5-7.5h10.465c4.143 0 7.5 3.358 7.5 7.5s-3.357 7.5-7.5 7.5z" fill="#1ba7ee"/><path d="m181.167 321.471h-92.188c-4.143 0-7.5-3.358-7.5-7.5s3.357-7.5 7.5-7.5h92.188c4.143 0 7.5 3.358 7.5 7.5s-3.357 7.5-7.5 7.5z" fill="#1acff8"/><path d="m81.479 313.971c0 4.142 3.357 7.5 7.5 7.5h9.49c-3.099-4.796-5.895-9.805-8.364-15h-1.126c-4.143 0-7.5 3.358-7.5 7.5z" fill="#1ba7ee"/><path d="m173.176 405.358h-108.596c-4.414 0-7.992-3.578-7.992-7.992v-37.841c0-4.414 3.578-7.992 7.992-7.992h108.596c4.414 0 7.992 3.578 7.992 7.992v37.841c-.001 4.414-3.579 7.992-7.992 7.992z" fill="#1acff8"/><path d="m125.126 351.534h-60.546c-4.414 0-7.992 3.578-7.992 7.992v37.841c0 4.414 3.578 7.992 7.992 7.992h108.596c4.414 0 7.991-3.578 7.991-7.992v-18.367c-20.979-4.615-40.093-14.2-56.041-27.466z" fill="#1ba7ee"/><path d="m268.124 405.358h119.649c4.512 0 8.169-3.658 8.169-8.169v-37.485c0-4.512-3.658-8.169-8.169-8.169h-119.649c-1.129 0-2.045.915-2.045 2.045v49.735c.001 1.128.916 2.043 2.045 2.043z" fill="#1acff8"/><path d="m280.567 351.534h-12.442c-1.129 0-2.045.915-2.045 2.045v49.735c0 1.129.916 2.045 2.045 2.045h12.442z" fill="#1ba7ee"/><path d="m277.724 328.694h-11.644c-4.143 0-7.5-3.358-7.5-7.5s3.357-7.5 7.5-7.5h11.645c4.143 0 7.5 3.358 7.5 7.5s-3.358 7.5-7.501 7.5z" fill="#46bffa"/><path d="m280.567 314.255c-.877-.36-1.836-.561-2.843-.561h-11.644c-4.143 0-7.5 3.358-7.5 7.5s3.357 7.5 7.5 7.5h11.645c1.007 0 1.965-.202 2.843-.561v-13.878z" fill="#1ba7ee"/><path d="m395.943 328.694h-95.307c-4.143 0-7.5-3.358-7.5-7.5s3.357-7.5 7.5-7.5h95.307c4.143 0 7.5 3.358 7.5 7.5s-3.358 7.5-7.5 7.5z" fill="#1acff8"/><path d="m395.943 298.354h-11.645c-4.143 0-7.5-3.358-7.5-7.5s3.357-7.5 7.5-7.5h11.645c4.143 0 7.5 3.358 7.5 7.5s-3.358 7.5-7.5 7.5z" fill="#1acff8"/><path d="m361.386 298.354h-95.306c-4.143 0-7.5-3.358-7.5-7.5s3.357-7.5 7.5-7.5h95.307c4.143 0 7.5 3.358 7.5 7.5s-3.358 7.5-7.501 7.5z" fill="#1acff8"/><path d="m280.567 283.354h-14.487c-4.143 0-7.5 3.358-7.5 7.5s3.357 7.5 7.5 7.5h14.487z" fill="#1ba7ee"/></svg>