<svg id="Capa_1" enable-background="new 0 0 497.095 497.095" height="512" viewBox="0 0 497.095 497.095" width="512" xmlns="http://www.w3.org/2000/svg"><path d="m411.483 303.871v107.019h-386.88s0-145.871 0-198.309c0-11.556 9.368-20.921 20.924-20.921h109.617 25.309 231.03z" fill="#e5eef8"/><path d="m160.453 191.66v92.87c0 21.692 17.648 39.341 39.341 39.341h211.688v-20-112.211h-231.03z" fill="#c5e1ff"/><path d="m180.453 216.66h-25.309-101.833c-2.048 0-3.708 1.66-3.708 3.708v147.946c0 2.048 1.66 3.708 3.708 3.708h329.464c2.048 0 3.708-1.66 3.708-3.708v-64.444-83.503c0-2.048-1.66-3.708-3.708-3.708h-202.322z" fill="#65daf9"/><path d="m118.341 355.743c-16.126 0-29.199-13.073-29.199-29.199v-109.884h-35.831c-2.048 0-3.708 1.66-3.708 3.708v147.946c0 2.048 1.66 3.708 3.708 3.708h329.464c2.048 0 3.708-1.66 3.708-3.708v-12.571z" fill="#1acff8"/><path d="m382.775 216.66h-202.322-20v67.87c0 21.692 17.648 39.341 39.341 39.341h186.688v-20-83.503c.001-2.048-1.659-3.708-3.707-3.708z" fill="#1acff8"/><path d="m343.298 103.887h-143.504c-10.682 0-19.342 8.66-19.342 19.342v161.3c0 10.682 8.66 19.342 19.342 19.342h239.683c10.682 0 19.342-8.66 19.342-19.342v-76.5-104.142z" fill="#e5eef8"/><path d="m370.028 271.741c-86.044 0-155.797-69.753-155.797-155.797v-12.056h-14.437c-10.682 0-19.342 8.66-19.342 19.342v161.3c0 10.682 8.66 19.342 19.342 19.342h239.683c10.682 0 19.342-8.66 19.342-19.342v-12.788h-88.791z" fill="#d5e2f3"/><path d="m199.794 103.887c-10.682 0-19.342 8.66-19.342 19.341v19.058h278.366v-38.399h-115.52z" fill="#fd6773"/><path d="m214.231 103.887h-14.437c-10.682 0-19.342 8.66-19.342 19.341v19.058h36.007c-1.459-8.564-2.229-17.363-2.229-26.343v-12.056z" fill="#fc4d5a"/><circle cx="203.433" cy="122.376" fill="#e81c18" r="5.12"/><circle cx="221.929" cy="122.376" fill="#fdc33f" r="5.12"/><circle cx="240.425" cy="122.376" fill="#8fffa6" r="5.12"/><path d="m414.129 434.952h-392.173c-12.126 0-21.956-9.83-21.956-21.956v-10.727c0-2.419 1.961-4.379 4.379-4.379h427.327c2.419 0 4.379 1.961 4.379 4.379v10.727c.001 12.126-9.83 21.956-21.956 21.956z" fill="#c5e1ff"/><path d="m493.394 112.978h-11.324c-1.177-4.58-2.999-8.9-5.347-12.871l8.018-8.018c1.445-1.445 1.445-3.789 0-5.234l-12.36-12.36c-1.445-1.445-3.788-1.445-5.234 0l-8.018 8.018c-3.971-2.348-8.291-4.169-12.871-5.347v-11.323c0-2.044-1.657-3.701-3.701-3.701h-17.479c-2.044 0-3.701 1.657-3.701 3.701v11.323c-4.58 1.178-8.9 2.999-12.871 5.347l-8.018-8.018c-1.445-1.445-3.788-1.445-5.234 0l-12.36 12.36c-1.445 1.445-1.445 3.789 0 5.234l8.018 8.018c-2.348 3.971-4.169 8.291-5.347 12.871h-11.323c-2.044 0-3.701 1.657-3.701 3.701v17.48c0 2.044 1.657 3.701 3.701 3.701h11.323c1.177 4.58 2.999 8.9 5.347 12.871l-8.018 8.018c-1.445 1.446-1.445 3.788 0 5.234l12.36 12.36c1.445 1.445 3.788 1.445 5.234 0l8.018-8.018c3.971 2.348 8.291 4.169 12.871 5.347v11.323c0 2.044 1.657 3.701 3.701 3.701h17.479c2.044 0 3.701-1.657 3.701-3.701v-11.325c4.58-1.178 8.9-2.999 12.871-5.347l8.018 8.018c1.445 1.445 3.789 1.445 5.234 0l12.36-12.36c1.445-1.446 1.445-3.788 0-5.234l-8.018-8.018c2.348-3.971 4.169-8.291 5.347-12.871h11.323c2.044 0 3.701-1.657 3.701-3.701v-17.48c.001-2.042-1.656-3.699-3.7-3.699z" fill="#fdcf8a"/><circle cx="433.819" cy="125.418" fill="#fcb64d" r="23.371"/><path d="m244.161 278.063h-7.707c-7.447 0-13.505-6.059-13.505-13.506v-69.857c0-7.446 6.059-13.505 13.505-13.505h7.707c4.142 0 7.5 3.357 7.5 7.5s-3.358 7.5-7.5 7.5h-6.212v66.868h6.212c4.142 0 7.5 3.357 7.5 7.5s-3.358 7.5-7.5 7.5z" fill="#d5e2f3"/><path d="m229.449 183.176c-3.889 2.374-6.499 6.644-6.499 11.523v69.857c0 7.447 6.059 13.506 13.505 13.506h7.707c4.142 0 7.5-3.357 7.5-7.5s-3.358-7.5-7.5-7.5h-6.212v-64.47c-3.111-4.959-5.955-10.102-8.501-15.416z" fill="#b4ceeb"/><path d="m376.007 278.063h-7.707c-4.142 0-7.5-3.357-7.5-7.5s3.358-7.5 7.5-7.5h6.212v-66.868h-6.212c-4.142 0-7.5-3.357-7.5-7.5s3.358-7.5 7.5-7.5h7.707c7.447 0 13.505 6.059 13.505 13.505v69.857c0 7.447-6.058 13.506-13.505 13.506z" fill="#d5e2f3"/><path d="m370.028 271.741c-3.079 0-6.134-.1-9.169-.276.447 3.716 3.605 6.598 7.441 6.598h7.707c4.806 0 9.022-2.531 11.416-6.322z" fill="#b4ceeb"/><path d="m277.154 252.485c-1.948 0-3.894-.754-5.363-2.257l-18.035-18.445c-1.414-1.446-2.184-3.402-2.135-5.424s.913-3.938 2.395-5.315l17.215-15.986c3.036-2.819 7.782-2.643 10.599.393 2.819 3.035 2.643 7.781-.392 10.6l-11.576 10.749 12.655 12.943c2.896 2.962 2.842 7.71-.12 10.605-1.46 1.426-3.352 2.137-5.243 2.137z" fill="#d5e2f3"/><path d="m251.62 226.359c-.048 2.021.721 3.978 2.135 5.424l18.035 18.445c1.47 1.503 3.416 2.257 5.363 2.257 1.891 0 3.784-.711 5.243-2.138 1.188-1.162 1.9-2.622 2.149-4.145-11.054-7.269-21.133-15.9-29.985-25.666l-.546.507c-1.481 1.378-2.345 3.294-2.394 5.316z" fill="#b4ceeb"/><path d="m330.99 252.485c-1.892 0-3.784-.711-5.243-2.138-2.962-2.896-3.015-7.644-.12-10.605l12.655-12.943-11.576-10.749c-3.035-2.818-3.211-7.564-.392-10.6 2.818-3.034 7.563-3.212 10.599-.393l17.215 15.986c1.482 1.377 2.346 3.293 2.395 5.315.048 2.021-.721 3.978-2.135 5.424l-18.035 18.445c-1.469 1.505-3.416 2.258-5.363 2.258z" fill="#d5e2f3"/><path d="m300.248 256.204c-.615 0-1.239-.076-1.862-.235-4.013-1.025-6.435-5.11-5.41-9.123l9.749-38.148c1.026-4.014 5.111-6.435 9.124-5.41s6.435 5.11 5.41 9.123l-9.749 38.148c-.867 3.39-3.917 5.645-7.262 5.645z" fill="#d5e2f3"/><path d="m301.777 256.026c-2.869-1.401-5.688-2.888-8.456-4.456.874 2.105 2.686 3.791 5.064 4.398.623.159 1.248.235 1.862.235.522.001 1.03-.072 1.53-.177z" fill="#b4ceeb"/><path d="m100.096 279.603h-18.457c-1.701 0-3.081-1.379-3.081-3.081v-18.456c0-1.701 1.379-3.081 3.081-3.081h18.456c1.701 0 3.081 1.379 3.081 3.081v18.456c0 1.702-1.379 3.081-3.08 3.081z" fill="#05f2a7"/><path d="m81.639 279.603h7.502v-24.618h-7.502c-1.701 0-3.081 1.379-3.081 3.081v18.456c.001 1.702 1.38 3.081 3.081 3.081z" fill="#13e29d"/><path d="m156.165 274.794h-20.044c-4.142 0-7.5-3.357-7.5-7.5s3.358-7.5 7.5-7.5h20.044c4.142 0 7.5 3.357 7.5 7.5s-3.358 7.5-7.5 7.5z" fill="#1acff8"/><path d="m100.096 333.706h-18.457c-1.701 0-3.081-1.379-3.081-3.081v-18.456c0-1.701 1.379-3.081 3.081-3.081h18.456c1.701 0 3.081 1.379 3.081 3.081v18.456c0 1.702-1.379 3.081-3.08 3.081z" fill="#05f2a7"/><path d="m81.639 333.706h8.39c-.578-2.292-.888-4.69-.888-7.162v-17.456h-7.502c-1.701 0-3.081 1.379-3.081 3.081v18.456c.001 1.702 1.38 3.081 3.081 3.081z" fill="#13e29d"/><path d="m167.165 328.898h-31.044c-4.142 0-7.5-3.357-7.5-7.5s3.358-7.5 7.5-7.5h31.044c4.142 0 7.5 3.357 7.5 7.5s-3.358 7.5-7.5 7.5z" fill="#1acff8"/></svg>